<svg xmlns="http://www.w3.org/2000/svg" version="1.1" xmlns:xlink="http://www.w3.org/1999/xlink" xmlns:svgjs="http://svgjs.com/svgjs" width="1441" height="560" preserveAspectRatio="none" viewBox="0 0 1441 560"><g mask="url(&quot;#SvgjsMask1005&quot;)" fill="none"><path d="M1188.53 37.64L1242.3 37.64L1242.3 91.41L1188.53 91.41z" stroke="rgba(2, 205, 255, 0.81)"></path><path d="M109.6 435.62L118.58 435.62L118.58 444.6L109.6 444.6z" fill="rgba(255, 170, 0, 0.61)"></path><path d="M579.91 45.25a30.97 30.97 0 1 0 60.54 13.08z" stroke="rgba(255, 0, 0, 1)"></path><path d="M717.37 443.77L740.26 443.77L740.26 466.66L717.37 466.66z" fill="rgba(2, 205, 255, 0.81)"></path><path d="M155.53 421.89a33.22 33.22 0 1 0-29.37 59.59z" fill="rgba(255, 170, 0, 0.61)"></path><path d="M117.43 345.51 a0.01 0.01 0 1 0 0.02 0 a0.01 0.01 0 1 0 -0.02 0z" stroke="rgba(255, 170, 0, 0.61)"></path><path d="M1110.31 505.5a23.09 23.09 0 1 0-6.19 45.77z" stroke="rgba(255, 0, 0, 1)"></path><path d="M986.99 381.47L1033.38 381.47L1033.38 428.4L986.99 428.4z" fill="rgba(2, 205, 255, 0.81)"></path><path d="M1305.2 293.24L1326.6 293.24L1326.6 314.64L1305.2 314.64z" fill="rgba(255, 170, 0, 0.61)"></path><path d="M544.63 343.18L549.53 343.18L549.53 349.44L544.63 349.44z" fill="rgba(255, 170, 0, 0.61)"></path><path d="M413.13 351.65 a14.76 14.76 0 1 0 29.52 0 a14.76 14.76 0 1 0 -29.52 0z" stroke="rgba(255, 170, 0, 0.61)"></path><path d="M890.99 260.35 a34.39 34.39 0 1 0 68.78 0 a34.39 34.39 0 1 0 -68.78 0z" fill="rgba(2, 205, 255, 0.81)"></path><path d="M562.86 204.26L613.52 204.26L613.52 254.92L562.86 254.92z" fill="rgba(255, 0, 0, 1)"></path><path d="M521.77 150.18L561.64 150.18L561.64 190.05L521.77 190.05z" stroke="rgba(255, 0, 0, 1)"></path><path d="M1320.54 296.84 a11.1 11.1 0 1 0 22.2 0 a11.1 11.1 0 1 0 -22.2 0z" stroke="rgba(2, 205, 255, 0.81)"></path><path d="M524.88 39.8L557.78 39.8L557.78 48.65L524.88 48.65z" fill="rgba(2, 205, 255, 0.81)"></path><path d="M517.57 34.19a13.34 13.34 0 1 0-26.46 3.44z" stroke="rgba(2, 205, 255, 0.81)"></path><path d="M643.5 471.14L691.74 471.14L691.74 520.16L643.5 520.16z" stroke="rgba(255, 0, 0, 1)"></path><path d="M1141.5 44.5a40.46 40.46 0 1 0-74.26-32.16z" stroke="rgba(255, 0, 0, 1)"></path><path d="M685.29 329.38a22.64 22.64 0 1 0-43.31-13.22z" fill="rgba(255, 170, 0, 0.61)"></path><path d="M1208.59 85.62a2.64 2.64 0 1 0 2.16-4.82z" stroke="rgba(255, 170, 0, 0.61)"></path><path d="M347.83 301.2L392.98 301.2L392.98 346.35L347.83 346.35z" stroke="rgba(255, 0, 0, 1)"></path><path d="M835.04 153.66a29.03 29.03 0 1 0 57.62 7.18z" fill="rgba(255, 0, 0, 1)"></path><path d="M445.61 56.8 a27.46 27.46 0 1 0 54.92 0 a27.46 27.46 0 1 0 -54.92 0z" fill="rgba(2, 205, 255, 0.81)"></path><path d="M263.94 460.58a21.45 21.45 0 1 0-26.18-33.99z" fill="rgba(255, 170, 0, 0.61)"></path><path d="M56.39 38.8L100.97 38.8L100.97 83.38L56.39 83.38z" stroke="rgba(255, 0, 0, 1)"></path><path d="M774.9 239.38L797.06 239.38L797.06 261.54L774.9 261.54z" fill="rgba(255, 0, 0, 1)"></path><path d="M435.41 90.59 a6.77 6.77 0 1 0 13.54 0 a6.77 6.77 0 1 0 -13.54 0z" stroke="rgba(255, 0, 0, 1)"></path><path d="M710.2 267.98a7.26 7.26 0 1 0-2.7 14.27z" fill="rgba(255, 0, 0, 1)"></path><path d="M1056.04 456.89L1056.24 456.89L1056.24 457.09L1056.04 457.09z" stroke="rgba(2, 205, 255, 0.81)"></path><path d="M146.01 79.07 a6.53 6.53 0 1 0 13.06 0 a6.53 6.53 0 1 0 -13.06 0z" stroke="rgba(255, 0, 0, 1)"></path><path d="M697.88 486.74a12.53 12.53 0 1 0 21.32 13.17z" fill="rgba(2, 205, 255, 0.81)"></path><path d="M184.93 288.18L233.59 288.18L233.59 314.31L184.93 314.31z" fill="rgba(2, 205, 255, 0.81)"></path></g><defs><mask id="SvgjsMask1005"><rect width="1441" height="560" fill="#ffffff"></rect></mask></defs></svg>