<svg xmlns="http://www.w3.org/2000/svg" version="1.1" xmlns:xlink="http://www.w3.org/1999/xlink" xmlns:svgjs="http://svgjs.com/svgjs" width="1440" height="560" preserveAspectRatio="none" viewBox="0 0 1440 560"><g mask="url(&quot;#SvgjsMask1853&quot;)" fill="none"><rect width="1440" height="560" x="0" y="0" fill="url(#SvgjsLinearGradient1854)"></rect><path d="M188.58 583.82C310.03 575.82 396.61 345.97 612.93 345.16 829.25 344.35 825.1 415.16 1037.28 415.16 1249.45 415.16 1354.11 345.39 1461.63 345.16" stroke="rgba(253, 130, 0, 0.58)" stroke-width="2"></path><path d="M154.46 636.26C306.48 603.14 361.09 211.23 602.66 204.49 844.22 197.75 826.75 274.49 1050.85 274.49 1274.95 274.49 1385.64 204.7 1499.05 204.49" stroke="rgba(253, 130, 0, 0.58)" stroke-width="2"></path><path d="M364.66 638.98C479.33 637.33 582.59 500.17 801.87 500.12 1021.16 500.07 1020.48 570.12 1239.09 570.12 1457.69 570.12 1565.6 500.34 1676.3 500.12" stroke="rgba(253, 130, 0, 0.58)" stroke-width="2"></path><path d="M331.7 651C481.95 591.63 494.63 148.17 717 132.21 939.36 116.25 909.65 202.21 1102.29 202.21 1294.94 202.21 1389.69 132.49 1487.59 132.21" stroke="rgba(253, 130, 0, 0.58)" stroke-width="2"></path><path d="M468.14 563.95C662.67 526.1 744.39 36.12 1054.47 30.48 1364.54 24.84 1490.72 158.52 1640.79 159.28" stroke="rgba(253, 130, 0, 0.58)" stroke-width="2"></path></g><defs><mask id="SvgjsMask1853"><rect width="1440" height="560" fill="#ffffff"></rect></mask><linearGradient x1="50%" y1="0%" x2="50%" y2="100%" gradientUnits="userSpaceOnUse" id="SvgjsLinearGradient1854"><stop stop-color="rgba(47, 47, 47, 1)" offset="0"></stop><stop stop-color="rgba(8, 0, 0, 1)" offset="1"></stop></linearGradient></defs></svg>